<?xml version="1.0" encoding="UTF-8"?>
<svg id="a" data-name="Layer 1" xmlns="http://www.w3.org/2000/svg" xmlns:xlink="http://www.w3.org/1999/xlink" viewBox="0 0 500 500">
  <defs>
    <style>
      .e {
        fill: url(#c);
      }

      .f {
        font-size: 376.03px;
      }

      .f, .g {
        fill: #66c;
        font-family: Inter-Black, Inter;
        font-variation-settings: 'wght' 900, 'slnt' 0;
        font-weight: 800;
      }

      .g {
        font-size: 461.83px;
      }

      .h {
        fill: url(#b);
      }
    </style>
    <linearGradient id="b" x1="156.67" y1="380.23" x2="156.67" y2="504.56" gradientTransform="translate(0 19.06) rotate(-10) scale(1.02 .98) skewX(-9.7)" gradientUnits="userSpaceOnUse">
      <stop offset="0" stop-color="#66c"/>
      <stop offset="1" stop-color="#b02aff"/>
    </linearGradient>
    <linearGradient id="c" x1="348.12" y1="377.35" x2="348.12" y2="519.25" gradientTransform="translate(18.6 56.14) rotate(-16.97) scale(1.05 .95) skewX(-17.81)" gradientUnits="userSpaceOnUse">
      <stop offset="0" stop-color="#66c"/>
      <stop offset=".2" stop-color="#6c60d0"/>
      <stop offset=".49" stop-color="#7f51dd"/>
      <stop offset=".83" stop-color="#9e38f2"/>
      <stop offset="1" stop-color="#b02aff"/>
    </linearGradient>
  </defs>
  <g>
    <text class="g" transform="translate(-1.76 399.6) rotate(-10) scale(1.02 .98) skewX(-9.7)"><tspan x="0" y="0">T</tspan></text>
    <path class="h" d="M111.73,379.59c5.07,7.94,12.56,16.26,10.94,27.39-1.46,10.78-7.33,22.4-8.14,33.65-.82,11.24,2.38,23.16,9.3,30.7,5.43,6.58,12.86,9.79,19.51,14.07,3.29,2.15,5.53,8.92,6.32,11.08.74,1.34,1.74.24,3.13-1.19,3.66-4,5.67-8.83,7.87-13.5,2.44-5.08,3.77-10.41,3.86-15.67.17-5.95-.35-12.85,5-17.48,3.37-3.11,8.02-5.26,12.15-5.32,1.89-.06,3.76.95,5.22,2.3.95.74,2.91,3.26,3.86,1.07,2.03-7.35-.46-14.76-1.32-21.67-.81-6.04-.71-12.16,1.21-18.61,1.29-4.29,3.01-8.43,4.44-12.71,3.5-10.09,6.34-20.38,6.54-29.94"/>
  </g>
  <g>
    <text class="f" transform="translate(202.71 382.47) rotate(-10) scale(1.02 .98) skewX(-9.7)"><tspan x="0" y="0">C</tspan></text>
    <path class="e" d="M287.32,350.13c8.67,8.84,23.41,25.8,17.44,41.27-2.31,6.74-7.29,12.88-9.36,19.91-1.34,3.78-1.39,10.8.03,13.12.85,1.53,1.9,1.04,3.5-.57,10.79-12.41,24.13-4.26,31.24,7.45,9.23,13.45,7.42,26.43,2.67,41.4-1.44,5.4,2.26,2.11,5.13-.06,12.05-9.76,16.18-17.09,21.18-31.8,1.6-4.02,3.62-7.96,6.44-11.27,3.76-4.95,12.1-9.25,16.55-6.68,2.58,1.04,4.27,5.13,5.83,6.52,1.6,1.51,3.01-3.11,3.11-5.06,1.74-13.88-7.31-26.48-11.06-39.32-5.02-16.93,2.07-32.34,12.79-44.25,4.85-5.25,18.41-11.4,21.58-16.71.6-1.08,1.45-2.15,1.63-3.26-.16-.42-.88.08-1.28.25-3.74,2.01-14.27,8.71-28.34,15.25-23.4,11.2-45.48,16.95-71.58,15.06-10.6-.52-19.35-1.92-24.05-2.45-3.34-.35-4.63-.37-3.48,1.13l.04.05Z"/>
  </g>
</svg>